# xmcd
#
# Track frame offsets:
#	150
#	15216
#	33891
#	54141
#	74724
#
# Disc length: 1241 seconds
# Revision: 0
# Processed by: cddbd v1.5.2PL0 Copyright (c) Steve Scherf et al.
# Submitted via: dBpowerAMP V12.0
#
DISCID=3204d705
DTITLE=Smoke Stack Rhino - Riverside
DYEAR=2013
DGENRE=Blues
TTITLE0=Outta Control
TTITLE1=Till The Day
TTITLE2=Riverside
TTITLE3=Yours For The Night
TTITLE4=All Gone
EXTD=
EXTT0=
EXTT1=
EXTT2=
EXTT3=
EXTT4=
PLAYORDER=
